<svg width="35" height="32" viewBox="0 0 35 32" fill="none" xmlns="http://www.w3.org/2000/svg">
<path d="M0 1.37143C0 1.0077 0.158046 0.658875 0.439371 0.401682C0.720695 0.144489 1.10225 0 1.5001 0L2.61618 0C4.51632 0 5.6564 1.16846 6.30644 2.25463C6.74047 2.97874 7.05449 3.81806 7.30051 4.57874C7.36705 4.57394 7.43377 4.5715 7.50052 4.57143H32.4983C34.1584 4.57143 35.3585 6.02331 34.9024 7.48434L31.2462 19.2037C30.9184 20.2548 30.2248 21.1797 29.2706 21.8383C28.3164 22.4969 27.1534 22.8532 25.9578 22.8535H14.061C12.8559 22.8535 11.6841 22.4918 10.7258 21.8238C9.76748 21.1558 9.07563 20.2185 8.75661 19.1561L7.23651 14.0873L4.71633 6.31954L4.71433 6.30491C4.40231 5.26811 4.11029 4.29714 3.67426 3.57303C3.25423 2.86903 2.9182 2.74286 2.61618 2.74286H1.5001C1.10225 2.74286 0.720695 2.59837 0.439371 2.34118C0.158046 2.08398 0 1.73515 0 1.37143ZM13.0009 32C14.0618 32 15.0793 31.6147 15.8295 30.9288C16.5797 30.243 17.0012 29.3128 17.0012 28.3429C17.0012 27.3729 16.5797 26.4427 15.8295 25.7569C15.0793 25.071 14.0618 24.6857 13.0009 24.6857C11.94 24.6857 10.9225 25.071 10.1723 25.7569C9.42209 26.4427 9.00063 27.3729 9.00063 28.3429C9.00063 29.3128 9.42209 30.243 10.1723 30.9288C10.9225 31.6147 11.94 32 13.0009 32ZM27.0019 32C28.0628 32 29.0803 31.6147 29.8305 30.9288C30.5807 30.243 31.0022 29.3128 31.0022 28.3429C31.0022 27.3729 30.5807 26.4427 29.8305 25.7569C29.0803 25.071 28.0628 24.6857 27.0019 24.6857C25.9409 24.6857 24.9235 25.071 24.1733 25.7569C23.4231 26.4427 23.0016 27.3729 23.0016 28.3429C23.0016 29.3128 23.4231 30.243 24.1733 30.9288C24.9235 31.6147 25.9409 32 27.0019 32Z" fill="white"/>
</svg>
