<svg width="38" height="33" viewBox="0 0 38 33" fill="none" xmlns="http://www.w3.org/2000/svg">
<path d="M25.6612 21.7385C23.1977 20.8163 14.6859 20.8163 12.3386 21.7385C7.22071 23.2239 2.89549 26.3547 0.194612 30.5289C-0.0645007 30.9307 -0.0648948 31.4261 0.193577 31.8283C0.452049 32.2305 0.93008 32.4783 1.44745 32.4783L36.5525 32.4786C37.0699 32.4786 37.548 32.2308 37.8064 31.8287C38.0649 31.4265 38.0645 30.9311 37.8054 30.5292C35.1045 26.3548 30.7792 23.2239 25.6612 21.7385Z" fill="white"/>
<path d="M18.9994 17.8621C24.496 17.8621 28.9519 13.8635 28.9519 8.93103C28.9519 3.99856 24.496 0 18.9994 0C13.5028 0 9.04688 3.99856 9.04688 8.93103C9.04688 13.8635 13.5028 17.8621 18.9994 17.8621Z" fill="white"/>
</svg>
